<svg width="20" height="16" viewBox="0 0 20 16" fill="none" xmlns="http://www.w3.org/2000/svg">
<path d="M2.44164 4.6001L3.33324 10.6266H16.3556L17.2421 4.51216L13.6706 7.60006L9.83113 2.66453L5.83424 7.5837L2.44164 4.6001ZM12.7053 3.02854L12.6256 3.09704L12.7697 3.11136L13.963 4.64406L15.4323 3.37414L15.5754 3.38845L15.512 3.30461L17.9793 1.17171C18.137 1.03563 18.3325 0.950965 18.5397 0.929055C18.7469 0.907145 18.9558 0.949033 19.1385 1.04911C19.3212 1.14919 19.4689 1.30268 19.562 1.48905C19.6551 1.67542 19.689 1.88577 19.6592 2.09194L18.1255 12.6716H1.56844L0.0111952 2.14C-0.0197378 1.93268 0.0137971 1.72086 0.107258 1.53323C0.200719 1.3456 0.349589 1.19123 0.533705 1.09102C0.717822 0.990819 0.928287 0.949625 1.1366 0.973018C1.3449 0.996412 1.54099 1.08326 1.69829 1.22181L4.05103 3.29234L3.9999 3.35369L4.11135 3.34551L5.58782 4.64406L6.82707 3.11749L6.93852 3.10829L6.87717 3.05512L9.05608 0.377239C9.15314 0.257926 9.27587 0.162047 9.41513 0.0967421C9.55438 0.0314373 9.70657 -0.00161031 9.86037 6.03277e-05C10.0142 0.00173097 10.1656 0.0380768 10.3034 0.106391C10.4412 0.174705 10.5618 0.273228 10.6563 0.394621L12.7063 3.02854H12.7053ZM1.64819 13.6941H18.0079V14.7165C18.0079 14.9877 17.9002 15.2478 17.7084 15.4396C17.5167 15.6313 17.2566 15.739 16.9854 15.739H2.67067C2.3995 15.739 2.13942 15.6313 1.94767 15.4396C1.75592 15.2478 1.64819 14.9877 1.64819 14.7165V13.6941Z" fill="#EA9215"/>
</svg>
