<svg width="985" height="658" viewBox="0 0 985 658" fill="none" xmlns="http://www.w3.org/2000/svg">
<path d="M56.0554 274.53C62.0456 233.552 92.6744 200.506 133.08 191.427L863.077 27.3963C925.589 13.3496 985 60.8919 985 124.964V558C985 613.228 940.228 658 885 658H115.681C54.6947 658 7.91116 603.88 16.7323 543.536L56.0554 274.53Z" fill="white"/>
<path d="M873.79 76.441H693.29C684.1 76.441 676.65 83.891 676.65 93.081V351.191C676.65 360.381 684.1 367.831 693.29 367.831H873.79C882.98 367.831 890.43 360.381 890.43 351.191V93.081C890.43 83.891 882.98 76.441 873.79 76.441Z" stroke="#CCDDE2" stroke-width="4.83" stroke-miterlimit="10"/>
<path d="M866 106.461H703.27C698.675 106.461 694.95 110.186 694.95 114.781V149.391C694.95 153.986 698.675 157.711 703.27 157.711H866C870.595 157.711 874.32 153.986 874.32 149.391V114.781C874.32 110.186 870.595 106.461 866 106.461Z" stroke="#CCDDE2" stroke-width="4.83" stroke-miterlimit="10"/>
<path d="M783.54 128.049C786.467 128.049 788.84 125.676 788.84 122.749C788.84 119.822 786.467 117.449 783.54 117.449C780.613 117.449 778.24 119.822 778.24 122.749C778.24 125.676 780.613 128.049 783.54 128.049Z" fill="#D7E8F0"/>
<path d="M768.73 146.732C768.73 142.804 770.29 139.037 773.068 136.26C775.845 133.482 779.612 131.922 783.54 131.922C787.468 131.922 791.235 133.482 794.012 136.26C796.79 139.037 798.35 142.804 798.35 146.732H768.73Z" fill="#D7E8F0"/>
<path d="M784.62 212.641C778.974 212.643 773.455 214.319 768.761 217.457C764.067 220.595 760.41 225.055 758.25 230.272C756.091 235.489 755.527 241.229 756.63 246.767C757.733 252.304 760.452 257.39 764.446 261.382C768.439 265.374 773.526 268.092 779.064 269.193C784.602 270.294 790.342 269.728 795.558 267.566C800.774 265.405 805.232 261.746 808.369 257.051C811.506 252.356 813.18 246.837 813.18 241.191C813.18 237.441 812.441 233.727 811.006 230.263C809.57 226.798 807.467 223.65 804.814 220.999C802.162 218.348 799.014 216.245 795.549 214.811C792.084 213.377 788.37 212.639 784.62 212.641ZM784.62 262.851C783.548 262.798 782.537 262.335 781.797 261.558C781.057 260.781 780.644 259.749 780.644 258.676C780.644 257.602 781.057 256.57 781.797 255.793C782.537 255.016 783.548 254.553 784.62 254.501C785.692 254.553 786.703 255.016 787.443 255.793C788.183 256.57 788.596 257.602 788.596 258.676C788.596 259.749 788.183 260.781 787.443 261.558C786.703 262.335 785.692 262.798 784.62 262.851ZM789.89 230.741C789.01 236.931 788.27 243.431 786.42 249.451C785.98 250.901 783.26 250.901 782.82 249.451C781.517 244.925 780.515 240.318 779.82 235.661C779.25 232.271 777.27 226.781 779.16 223.491C780.83 220.491 785.53 220.191 788.26 221.731C791.61 223.621 790.29 227.661 789.89 230.741Z" fill="#D7E8F0"/>
<path d="M472.23 134.292C462.22 131.307 451.55 131.358 441.569 134.437C431.588 137.517 422.745 143.487 416.157 151.593C409.569 159.699 405.533 169.576 404.56 179.976C403.586 190.375 405.717 200.83 410.686 210.018C415.654 219.206 423.235 226.715 432.471 231.594C441.706 236.473 452.181 238.504 462.571 237.43C472.961 236.355 482.799 232.224 490.841 225.558C498.882 218.893 504.767 209.992 507.75 199.982C509.732 193.336 510.385 186.365 509.672 179.467C508.96 172.569 506.895 165.879 503.597 159.779C500.298 153.679 495.831 148.289 490.449 143.916C485.067 139.542 478.876 136.272 472.23 134.292ZM445.7 223.292C443.793 222.662 442.206 221.314 441.276 219.533C440.347 217.753 440.148 215.68 440.722 213.755C441.296 211.83 442.597 210.205 444.35 209.224C446.103 208.243 448.169 207.984 450.11 208.502C451.108 208.768 452.042 209.232 452.857 209.865C453.673 210.499 454.353 211.29 454.857 212.191C455.361 213.092 455.68 214.086 455.793 215.112C455.907 216.138 455.813 217.177 455.518 218.167C455.223 219.156 454.732 220.077 454.075 220.874C453.418 221.67 452.608 222.327 451.692 222.805C450.777 223.283 449.775 223.572 448.746 223.656C447.716 223.739 446.681 223.616 445.7 223.292ZM472 169.152C467.17 179.662 462.41 190.792 456 200.482C454.46 202.822 449.63 201.382 449.62 198.582C449.702 189.88 450.37 181.194 451.62 172.582C452.4 166.292 451.79 155.512 456.88 150.672C461.4 146.342 469.88 148.202 473.93 152.362C478.8 157.442 474.34 163.912 472 169.152Z" fill="#CF264E"/>
<path d="M324.73 251.219C321.068 254.946 318.593 259.675 317.619 264.808C316.644 269.941 317.213 275.248 319.255 280.058C321.296 284.868 324.717 288.964 329.087 291.829C333.456 294.694 338.576 296.2 343.801 296.155C349.026 296.11 354.12 294.518 358.44 291.578C362.759 288.638 366.11 284.484 368.068 279.64C370.027 274.796 370.505 269.48 369.443 264.364C368.381 259.248 365.825 254.563 362.1 250.899C357.101 245.987 350.357 243.261 343.349 243.321C336.341 243.381 329.644 246.222 324.73 251.219ZM357.87 283.789C357.515 284.151 357.092 284.439 356.625 284.637C356.158 284.836 355.657 284.94 355.15 284.945C354.643 284.949 354.14 284.854 353.67 284.664C353.2 284.475 352.772 284.194 352.41 283.839C352.048 283.484 351.76 283.061 351.562 282.594C351.363 282.128 351.259 281.626 351.254 281.119C351.25 280.612 351.345 280.109 351.535 279.639C351.724 279.169 352.005 278.741 352.36 278.379C353.077 277.648 354.056 277.233 355.08 277.223C356.104 277.214 357.089 277.612 357.82 278.329C358.551 279.046 358.966 280.025 358.976 281.049C358.985 282.073 358.587 283.058 357.87 283.789ZM340.1 259.499C343.61 264.099 347.42 268.809 350.19 273.929C350.86 275.159 349.1 276.929 347.86 276.309C344.041 274.224 340.366 271.886 336.86 269.309C334.25 267.499 329.35 265.239 328.4 261.849C327.54 258.849 330.4 255.509 333.14 254.719C336.51 253.739 338.32 257.229 340.1 259.499Z" fill="#CF264E"/>
<path d="M712.89 180.59H852.36" stroke="#CCDDE2" stroke-width="4.83" stroke-miterlimit="10"/>
<path d="M712.89 194.32H852.36" stroke="#CCDDE2" stroke-width="4.83" stroke-miterlimit="10"/>
<path d="M712.89 282.719H852.36" stroke="#CCDDE2" stroke-width="4.83" stroke-miterlimit="10"/>
<path d="M745.28 295.711H819.96" stroke="#CCDDE2" stroke-width="4.83" stroke-miterlimit="10"/>
<path d="M890.44 264.699C902.74 280.159 914.44 299.319 925.02 322.929C989.44 466.789 908.92 539.799 908.92 539.799" stroke="#9F9F9F" stroke-width="4.83" stroke-miterlimit="10"/>
<path d="M883.7 586.591C883.457 592.577 881.908 598.437 879.16 603.761C879.052 604.026 878.925 604.283 878.78 604.531C873.96 613.19 867.217 620.628 859.07 626.271L858.78 626.471C851.426 631.39 843.154 634.775 834.46 636.421C834.46 636.501 834.46 636.421 834.46 636.421H927C927 636.421 914.62 459.871 800.84 373.971C690.73 290.851 587.64 330.911 581.1 333.591C583.126 339.311 584.032 345.368 583.77 351.431C583.77 351.431 592.05 355.741 593.43 371.171C594.81 386.601 597.69 429.501 570 437.581C570 437.581 545.14 436.971 538.57 427.431C532 417.891 530.42 419.831 527.84 422.251C525.84 424.081 513.77 430.621 508.2 433.621C508.904 433.655 509.603 433.752 510.29 433.911C510.29 433.911 513.48 460.831 552.51 503.021C553.832 504.414 555.081 505.876 556.25 507.401C562.143 512.554 568.767 517.814 576.12 523.181L620.66 555.771C621.665 556.626 622.857 557.232 624.14 557.541C626.632 558.169 629.237 558.193 631.74 557.611C636.92 556.611 672.29 553.001 695.18 550.721C695.7 550.721 696.25 550.621 696.76 550.561L699.76 550.271C700.24 550.271 700.76 550.171 701.18 550.141L703.88 549.881C705.2 549.751 706.39 549.621 707.49 549.531L710.49 549.241C713.14 548.981 714.71 548.821 714.84 548.821C720.293 548.666 725.729 548.138 731.11 547.241C736.26 546.241 740.96 544.631 742.18 541.961C742.411 541.398 742.497 540.785 742.43 540.181C742.154 538.482 741.444 536.884 740.37 535.541C735.67 529.231 724.75 523.821 723.95 523.431C723.927 523.423 723.903 523.423 723.88 523.431L723.66 523.271L658.66 472.771H658.59C658.59 472.771 668.38 368.331 757.59 394.031C757.59 394.031 758.01 394.321 758.78 394.961C762.26 397.641 773.21 406.521 789.31 423.111C789.73 423.561 790.18 424.011 790.63 424.491C792.34 426.231 794.02 428.041 795.69 429.811C806.99 441.891 820.36 457.281 835.11 476.471L835.21 476.571C852.11 498.571 864.29 518.731 872.21 536.571V536.631C880.78 556.021 884.39 572.631 883.68 585.881C883.702 586.117 883.709 586.354 883.7 586.591ZM614.63 407.081C611.99 376.651 626.8 365.631 627.63 365.021C606.57 403.121 645.63 461.521 647 463.781C645.88 462.841 617.27 437.501 614.63 407.081Z" fill="#353642"/>
<path d="M558.69 401.111C557.594 401.917 556.452 402.658 555.27 403.331L548.41 391.331C564.23 383.241 568.67 368.981 561.71 361.151C559.764 359.009 557.255 357.457 554.47 356.671C547.47 354.551 542.62 357.671 539.33 361.861C536.645 365.503 534.676 369.623 533.53 374.001L530.19 335.481L529.93 332.481C529.93 332.481 522.65 328.871 502.93 332.091C483.21 335.311 479.58 346.201 471.11 341.371C462.64 336.541 457.84 336.931 457.84 336.931C455.43 345.781 448.98 345.781 448.98 345.781C447.452 345.596 445.951 345.231 444.51 344.691C435.36 336.281 432.88 321.691 432.88 321.691C442.48 320.501 443.22 311.261 442.12 303.691C447.44 306.851 454.94 307.071 465.47 300.311C495.68 280.991 526.66 291.451 537.55 293.061C542.41 293.771 547.73 292.061 552.14 290.061C552.71 291.082 553.503 291.96 554.46 292.631C561.811 297.752 567.874 304.509 572.17 312.371C600.52 365.361 569.44 393.501 558.69 401.111Z" fill="#CF264E"/>
<path d="M445.52 636.439H456.92C461.796 636.434 466.47 634.494 469.918 631.047C473.365 627.599 475.305 622.925 475.31 618.049V605.289C475.31 604.126 475.081 602.974 474.635 601.9C474.19 600.825 473.537 599.849 472.714 599.027C471.891 598.205 470.915 597.554 469.84 597.11C468.765 596.665 467.613 596.438 466.45 596.439H398.27C398.273 599.155 397.739 601.845 396.701 604.354C395.663 606.864 394.139 609.144 392.218 611.064C390.297 612.984 388.016 614.506 385.506 615.544C382.996 616.581 380.306 617.113 377.59 617.109H131.22C131.223 622.235 133.26 627.15 136.885 630.774C140.509 634.399 145.424 636.436 150.55 636.439H484.55C484.986 636.44 485.419 636.355 485.822 636.189C486.225 636.022 486.592 635.778 486.901 635.469C487.209 635.161 487.454 634.794 487.62 634.391C487.786 633.988 487.871 633.555 487.87 633.119V612.409C487.87 608.385 489.468 604.527 492.313 601.682C495.158 598.837 499.017 597.239 503.04 597.239C507.063 597.239 510.922 598.837 513.767 601.682C516.612 604.527 518.21 608.385 518.21 612.409V633.119C518.209 633.554 518.293 633.986 518.459 634.389C518.625 634.791 518.868 635.157 519.176 635.466C519.483 635.774 519.849 636.019 520.251 636.186C520.653 636.353 521.084 636.439 521.52 636.439H927C927 636.439 914.62 459.849 800.84 373.959C690.73 290.839 587.64 330.899 581.1 333.579L580.78 333.699" stroke="black" stroke-width="4.83" stroke-miterlimit="10"/>
<path d="M467.09 376.8C467.086 377.91 466.753 378.995 466.134 379.916C465.514 380.837 464.636 381.555 463.609 381.977C462.582 382.4 461.454 382.509 460.365 382.29C459.276 382.072 458.277 381.536 457.493 380.751C456.708 379.965 456.174 378.964 455.958 377.875C455.741 376.786 455.852 375.658 456.277 374.632C456.701 373.606 457.42 372.729 458.342 372.111C459.265 371.493 460.35 371.162 461.46 371.16C461.895 371.162 462.328 371.216 462.75 371.32C462.168 371.504 461.66 371.869 461.3 372.362C460.94 372.855 460.747 373.45 460.75 374.06C460.747 374.443 460.82 374.823 460.965 375.178C461.109 375.532 461.322 375.855 461.592 376.127C461.861 376.399 462.182 376.616 462.535 376.764C462.888 376.912 463.267 376.989 463.65 376.99C464.35 376.976 465.024 376.718 465.553 376.259C466.083 375.801 466.436 375.171 466.55 374.48C466.895 375.206 467.079 375.997 467.09 376.8Z" fill="black"/>
<path d="M506.1 378.368C506.102 379.484 505.773 380.576 505.154 381.505C504.536 382.433 503.656 383.158 502.625 383.586C501.595 384.015 500.461 384.128 499.366 383.911C498.271 383.695 497.265 383.158 496.475 382.37C495.686 381.582 495.148 380.577 494.929 379.482C494.711 378.388 494.822 377.254 495.248 376.222C495.675 375.191 496.398 374.31 497.326 373.69C498.253 373.069 499.344 372.738 500.46 372.738C500.729 372.736 500.998 372.767 501.26 372.828C500.761 373.058 500.339 373.426 500.043 373.889C499.746 374.351 499.589 374.889 499.59 375.438C499.556 376.208 499.828 376.959 500.347 377.527C500.867 378.095 501.591 378.434 502.36 378.468C503.129 378.503 503.88 378.23 504.449 377.711C505.017 377.191 505.356 376.468 505.39 375.698C505.852 376.513 506.096 377.432 506.1 378.368Z" fill="black"/>
<path d="M551.09 282.141C550.44 286.521 551.25 290.361 554.47 292.641C561.821 297.762 567.884 304.519 572.18 312.381C606 375.571 555.27 403.381 555.27 403.381L548.41 391.381C568.16 381.301 570.18 361.561 554.47 356.721C538.76 351.881 533.53 374.051 533.53 374.051L529.93 332.501C529.93 332.501 522.65 328.891 502.93 332.111C483.21 335.331 479.58 346.221 471.11 341.391C462.64 336.561 457.84 336.951 457.84 336.951C455.43 345.801 448.98 345.801 448.98 345.801C430.08 343.391 425.64 317.241 425.64 317.241C435.23 316.041 435.97 306.801 434.88 299.241C440.19 302.401 447.7 302.631 458.23 295.861C488.44 276.541 519.42 287.011 530.3 288.621C537.82 289.711 546.45 285.111 551.09 282.141Z" stroke="black" stroke-width="4.83" stroke-linecap="round" stroke-linejoin="round"/>
<path d="M568.53 595.5L576 592.5L581.6 607.61L580.72 635.03L573.15 636.4L544.42 635.16C544.42 635.16 546.42 618.44 552.53 610.49C558.64 602.54 568.53 595.5 568.53 595.5Z" fill="#CF264E"/>
<path d="M437.72 355.041C437.72 355.041 445.37 341.311 461.47 342.741" stroke="black" stroke-width="4.83" stroke-miterlimit="10"/>
<path d="M493 342.738C493 342.738 511.4 338.608 517.84 348.838" stroke="black" stroke-width="4.83" stroke-miterlimit="10"/>
<path d="M521.51 404.9C521.51 404.9 510.51 398.53 502.46 409.24" stroke="black" stroke-width="4.83" stroke-miterlimit="10"/>
<path d="M452 344.941C452 344.941 444.17 437.051 502.56 435.351C512.56 435.061 522.5 428.491 532 417.921" stroke="black" stroke-width="4.83" stroke-miterlimit="10"/>
<path d="M555.27 426.299L532 417.919C532 417.919 537.77 436.359 566.35 437.769C594.93 439.179 604.52 373.589 583.52 347.199" stroke="black" stroke-width="4.83" stroke-linejoin="round"/>
<path d="M646.25 611.078C646.25 611.078 624.92 628.388 639.41 636.438" stroke="black" stroke-width="4.83" stroke-miterlimit="10"/>
<path d="M629.75 594.969C629.75 594.969 592.75 615.909 624.52 636.439" stroke="black" stroke-width="4.83" stroke-miterlimit="10"/>
<path d="M617.27 578.871C617.27 578.871 568.16 601.871 606 636.441" stroke="black" stroke-width="4.83" stroke-miterlimit="10"/>
<path d="M823.79 636.439C823.79 636.439 883.37 636.439 884.17 578.869C884.97 521.299 768.64 376.739 693.36 356.629C618.08 336.519 614.85 391.629 614.85 393.889C614.85 396.149 610.43 419.889 629.75 445.219C644.67 464.799 710.57 513.679 739.81 534.919C740.884 535.701 741.695 536.79 742.135 538.044C742.574 539.297 742.622 540.654 742.271 541.935C741.921 543.216 741.188 544.36 740.172 545.215C739.155 546.069 737.902 546.594 736.58 546.719L607.26 559.139H607.18C605.96 559.359 560.32 567.779 546.42 582.079C546.42 582.079 538.63 587.849 542.66 596.709C546.69 605.569 559.07 602.649 559.41 602.319" stroke="black" stroke-width="4.83" stroke-miterlimit="10"/>
<path opacity="0.26" d="M500.47 388.829C509.362 388.829 516.57 381.621 516.57 372.729C516.57 363.837 509.362 356.629 500.47 356.629C491.578 356.629 484.37 363.837 484.37 372.729C484.37 381.621 491.578 388.829 500.47 388.829Z" fill="white"/>
<path opacity="0.26" d="M459.61 387.239C468.502 387.239 475.71 380.031 475.71 371.139C475.71 362.247 468.502 355.039 459.61 355.039C450.718 355.039 443.51 362.247 443.51 371.139C443.51 380.031 450.718 387.239 459.61 387.239Z" fill="white"/>
<path d="M598.78 592.961C593.12 591.381 583.87 589.961 574.34 593.021C569.68 594.522 565.38 596.97 561.71 600.211C560.91 600.911 560.14 601.621 559.4 602.331C557.805 603.895 556.299 605.547 554.89 607.281C554.705 607.51 554.441 607.663 554.15 607.711C550.6 608.201 527.23 611.901 527.35 623.711C527.46 634.321 539.08 636.061 543.08 636.341C543.245 636.356 543.411 636.337 543.568 636.285C543.725 636.232 543.87 636.148 543.993 636.037C544.116 635.926 544.215 635.791 544.283 635.64C544.352 635.49 544.388 635.326 544.39 635.161C544.39 631.381 545.25 619.531 554.6 607.611" stroke="black" stroke-width="4.83" stroke-miterlimit="10"/>
<path d="M388.22 509.609C390.96 531.699 373.79 541.689 355.02 543.169" stroke="black" stroke-width="4.83" stroke-miterlimit="10"/>
<path d="M327.74 538.56C320.583 534.694 314.786 528.722 311.133 521.454C307.481 514.185 306.15 505.97 307.32 497.92C310.32 476.67 328.32 460.37 345.94 450.03C382.94 428.32 466.32 444.03 480.33 447.23C491.07 449.69 500.05 441.29 503.69 437.23C503.845 437.058 504.045 436.933 504.268 436.872C504.491 436.81 504.727 436.814 504.948 436.882C505.169 436.951 505.366 437.081 505.515 437.258C505.664 437.435 505.76 437.65 505.79 437.88C513.48 482.88 602.79 543.96 623.45 557.63" stroke="black" stroke-width="4.83" stroke-miterlimit="10"/>
<path d="M410.75 494.332L381.18 512.682C379.418 513.779 377.445 514.495 375.39 514.783C373.334 515.071 371.241 514.924 369.245 514.353C367.249 513.782 365.395 512.799 363.803 511.468C362.21 510.136 360.915 508.485 360 506.622C358.351 503.275 358.024 499.43 359.084 495.853C360.144 492.275 362.514 489.229 365.72 487.322L410.72 460.512" stroke="black" stroke-width="4.83" stroke-miterlimit="10"/>
<path d="M500.47 388.829C509.362 388.829 516.57 381.621 516.57 372.729C516.57 363.837 509.362 356.629 500.47 356.629C491.578 356.629 484.37 363.837 484.37 372.729C484.37 381.621 491.578 388.829 500.47 388.829Z" stroke="black" stroke-width="4.83" stroke-miterlimit="10"/>
<path d="M459.61 384.829C467.171 384.829 473.3 378.7 473.3 371.139C473.3 363.578 467.171 357.449 459.61 357.449C452.049 357.449 445.92 363.578 445.92 371.139C445.92 378.7 452.049 384.829 459.61 384.829Z" stroke="white" stroke-width="4.83" stroke-miterlimit="10"/>
<path d="M459.61 387.239C468.502 387.239 475.71 380.031 475.71 371.139C475.71 362.247 468.502 355.039 459.61 355.039C450.718 355.039 443.51 362.247 443.51 371.139C443.51 380.031 450.718 387.239 459.61 387.239Z" stroke="black" stroke-width="4.83" stroke-miterlimit="10"/>
<path d="M484.45 371.141H475.71" stroke="black" stroke-width="4.83" stroke-miterlimit="10"/>
<path d="M484.45 393.891H478.69C478.328 393.891 477.97 393.812 477.642 393.658C477.314 393.504 477.024 393.279 476.793 393C476.561 392.721 476.395 392.395 476.304 392.044C476.214 391.693 476.202 391.327 476.27 390.971L480.08 371.141" stroke="black" stroke-width="4.83" stroke-miterlimit="10"/>
<path d="M368.88 448.84C368.88 448.84 348.35 453.27 341.11 484.27C336.71 503.09 330.67 527.1 326.61 543.06C326.089 545.107 326.043 547.246 326.474 549.314C326.906 551.382 327.805 553.324 329.101 554.992C330.398 556.66 332.058 558.01 333.955 558.938C335.853 559.867 337.937 560.35 340.05 560.35C343.204 560.35 346.265 559.276 348.726 557.303C351.188 555.331 352.903 552.578 353.59 549.5L362.18 510.96" stroke="black" stroke-width="4.83" stroke-miterlimit="10"/>
<path d="M387.65 521.302C387.65 521.302 409.2 508.422 451.65 521.302C494.1 534.182 542.9 542.922 559 508.762" stroke="black" stroke-width="4.83" stroke-miterlimit="10"/>
<path d="M574.35 593.02C574.35 593.02 589.35 610.14 580.23 636.44" stroke="black" stroke-width="4.83" stroke-miterlimit="10"/>
<path d="M78.68 380.129H315.68C323.314 380.119 330.729 382.678 336.731 387.394C342.733 392.111 346.974 398.71 348.77 406.129L386.5 562.389C387.518 566.605 387.566 570.998 386.641 575.235C385.716 579.473 383.841 583.446 381.158 586.854C378.474 590.262 375.053 593.017 371.151 594.911C367.249 596.805 362.968 597.789 358.63 597.789H122.24C114.621 597.796 107.22 595.244 101.225 590.542C95.2304 585.84 90.9884 579.26 89.18 571.859L50.84 415.629C49.8047 411.408 49.7425 407.007 50.658 402.759C51.5735 398.511 53.4428 394.526 56.1245 391.107C58.8063 387.687 62.2304 384.922 66.1379 383.02C70.0455 381.118 74.3342 380.13 78.68 380.129Z" fill="#CF264E"/>
<path d="M87.31 386.852H309.67C316.833 386.861 323.786 389.273 329.415 393.703C335.045 398.132 339.026 404.322 340.72 411.282L376.14 557.872C377.096 561.827 377.143 565.947 376.275 569.923C375.408 573.899 373.65 577.626 371.133 580.823C368.616 584.021 365.407 586.605 361.746 588.382C358.085 590.159 354.069 591.082 350 591.082H128.18C121.039 591.067 114.108 588.663 108.491 584.255C102.873 579.846 98.8916 573.684 97.18 566.752L61.18 420.152C60.2079 416.191 60.1493 412.062 61.0087 408.075C61.868 404.089 63.6228 400.35 66.1402 397.142C68.6576 393.934 71.8717 391.34 75.5393 389.557C79.207 387.775 83.2321 386.849 87.31 386.852Z" fill="#CF264E"/>
<path d="M78.68 380.129H315.68C323.314 380.119 330.729 382.678 336.731 387.394C342.733 392.111 346.974 398.71 348.77 406.129L386.5 562.389C387.518 566.605 387.566 570.998 386.641 575.235C385.716 579.473 383.841 583.446 381.158 586.854C378.474 590.262 375.053 593.017 371.151 594.911C367.249 596.805 362.968 597.789 358.63 597.789H122.24C114.621 597.796 107.22 595.244 101.225 590.542C95.2304 585.84 90.9884 579.26 89.18 571.859L50.84 415.629C49.8047 411.408 49.7425 407.007 50.658 402.759C51.5735 398.511 53.4428 394.526 56.1245 391.107C58.8063 387.687 62.2304 384.922 66.1379 383.02C70.0455 381.118 74.3342 380.13 78.68 380.129Z" stroke="black" stroke-width="4.83" stroke-miterlimit="10"/>
<path d="M189.68 484.21L175.55 418.34C175.257 416.947 174.493 415.697 173.388 414.8C172.283 413.902 170.904 413.412 169.48 413.41H99.56C98.6194 413.413 97.6918 413.629 96.8472 414.043C96.0027 414.457 95.2633 415.057 94.6852 415.799C94.1071 416.541 93.7054 417.405 93.5104 418.325C93.3155 419.245 93.3324 420.198 93.56 421.11L109.91 487.75C110.113 488.679 110.546 489.542 111.17 490.26C111.73 490.972 112.443 491.547 113.257 491.944C114.071 492.341 114.965 492.548 115.87 492.55H116L183.67 491.75C184.584 491.737 185.483 491.522 186.304 491.121C187.125 490.72 187.848 490.143 188.42 489.43C189.003 488.707 189.418 487.864 189.636 486.962C189.854 486.059 189.869 485.119 189.68 484.21ZM98.23 419.93C98.1793 419.733 98.1745 419.527 98.2161 419.327C98.2577 419.128 98.3446 418.941 98.47 418.78C98.5983 418.613 98.7633 418.477 98.9523 418.384C99.1412 418.29 99.3491 418.241 99.56 418.24H169.48C169.795 418.239 170.101 418.346 170.345 418.545C170.59 418.744 170.757 419.021 170.82 419.33L181.58 469.5C145.65 434.81 141.58 474.61 141.58 474.61C121.3 464.05 115.44 475.61 113.74 483.22L98.23 419.93Z" fill="#D7E8F0"/>
<path d="M118.42 443.841C122.32 442.631 124.17 437.461 122.57 432.291C120.97 427.121 116.5 423.921 112.57 425.131C108.64 426.341 106.82 431.511 108.43 436.671C110.04 441.831 114.53 445.051 118.42 443.841Z" fill="#D7E8F0"/>
<path d="M135.54 442.66H158.48C161.33 442.66 164.19 442.66 167.04 442.66H167.45C168.252 442.682 169.05 442.532 169.79 442.22C170.301 441.967 170.736 441.582 171.049 441.106C171.363 440.629 171.544 440.078 171.575 439.508C171.605 438.938 171.484 438.371 171.223 437.863C170.962 437.356 170.571 436.927 170.09 436.62C169.551 436.375 169.06 436.037 168.64 435.62C168.362 435.181 168.171 434.692 168.08 434.18C167.55 432.733 166.527 431.518 165.19 430.75C164.217 430.096 163.123 429.645 161.971 429.423C160.82 429.201 159.636 429.214 158.49 429.46C157.359 429.746 156.324 430.325 155.49 431.14C154.78 431.84 154.64 432.78 154.09 433.56C153.73 434.07 153.5 433.91 153.01 433.63C152.52 433.35 152.25 433.14 151.85 432.94C151.061 432.518 150.242 432.154 149.4 431.85C147.685 431.215 145.856 430.946 144.03 431.06C140.82 431.31 137.62 433.22 136.5 436.24C135.491 436.254 134.519 436.627 133.761 437.292C133.002 437.957 132.505 438.872 132.36 439.87C132.294 440.255 132.319 440.651 132.433 441.024C132.548 441.398 132.749 441.739 133.02 442.02C133.749 442.544 134.649 442.772 135.54 442.66Z" fill="#D7E8F0"/>
<path d="M300 441.238L298.16 433.668C296.926 428.579 294.017 424.053 289.899 420.817C285.782 417.581 280.697 415.824 275.46 415.828H250.19C247.307 415.825 244.462 416.487 241.876 417.763C239.291 419.039 237.035 420.894 235.283 423.185C233.532 425.475 232.333 428.139 231.779 430.968C231.225 433.797 231.332 436.717 232.09 439.498L234.18 447.188C235.515 452.136 238.444 456.505 242.513 459.62C246.583 462.735 251.565 464.421 256.69 464.418H281.81C284.647 464.416 287.447 463.769 289.998 462.527C292.549 461.284 294.785 459.479 296.536 457.247C298.288 455.015 299.51 452.414 300.11 449.641C300.71 446.868 300.672 443.995 300 441.238ZM272.21 443.108L263.58 448.418C263.248 448.629 262.871 448.761 262.479 448.802C262.087 448.843 261.691 448.793 261.322 448.655C260.953 448.518 260.621 448.296 260.351 448.009C260.082 447.721 259.883 447.375 259.77 446.998L256.52 436.378C256.384 435.907 256.384 435.406 256.521 434.935C256.658 434.464 256.926 434.041 257.293 433.717C257.661 433.392 258.114 433.178 258.598 433.101C259.083 433.023 259.579 433.085 260.03 433.278L272 438.568C272.428 438.761 272.795 439.067 273.061 439.454C273.326 439.841 273.48 440.293 273.506 440.762C273.532 441.231 273.428 441.697 273.207 442.111C272.985 442.525 272.654 442.87 272.25 443.108H272.21Z" fill="white"/>
<path d="M294.36 509.238H250.15C248.126 509.235 246.147 508.643 244.453 507.535C242.759 506.428 241.424 504.851 240.61 502.998C240.358 502.428 240.222 501.812 240.21 501.188C240.221 499.982 240.706 498.829 241.562 497.979C242.418 497.129 243.574 496.651 244.78 496.648H291.78C289.57 500.388 290.69 505.558 294.36 509.238Z" fill="#D7E8F0"/>
<path d="M323 504.698C322.997 505.902 322.518 507.055 321.667 507.906C320.817 508.757 319.663 509.236 318.46 509.238H294.36C290.69 505.558 289.57 500.388 291.78 496.648H313C315.021 496.649 316.997 497.237 318.691 498.339C320.384 499.441 321.721 501.011 322.54 502.858C322.817 503.434 322.973 504.06 323 504.698Z" fill="#CF264E"/>
<path d="M311.89 509.239C311.765 509.48 311.621 509.711 311.46 509.929C308.3 514.239 301.46 514.639 296.15 510.759C295.516 510.299 294.917 509.791 294.36 509.239C290.69 505.559 289.57 500.389 291.78 496.649C291.904 496.411 292.048 496.184 292.21 495.969C295.34 491.629 302.21 491.249 307.49 495.099C308.13 495.571 308.735 496.089 309.3 496.649C313 500.329 314.07 505.499 311.89 509.239Z" fill="white"/>
<path d="M334.07 532.501C334.059 533.707 333.574 534.86 332.718 535.71C331.862 536.56 330.706 537.038 329.5 537.041H154.28C156.52 533.281 155.4 528.131 151.72 524.461H324.13C326.152 524.46 328.131 525.049 329.823 526.156C331.516 527.262 332.849 528.838 333.66 530.691C333.919 531.26 334.059 531.876 334.07 532.501Z" fill="#CF264E"/>
<path d="M154.28 536.99H132.45C130.429 536.991 128.452 536.404 126.758 535.301C125.065 534.199 123.728 532.628 122.91 530.78C122.653 530.201 122.517 529.574 122.51 528.94C122.509 528.344 122.625 527.754 122.853 527.203C123.081 526.652 123.415 526.152 123.837 525.731C124.259 525.309 124.76 524.976 125.312 524.749C125.863 524.523 126.454 524.408 127.05 524.41H151.72C155.4 528.08 156.52 533.23 154.28 536.99Z" fill="#D7E8F0"/>
<path d="M154.28 536.99C154.177 537.236 154.043 537.468 153.88 537.68C150.75 542.02 143.88 542.39 138.59 538.54C137.953 538.068 137.351 537.55 136.79 536.99C133.14 533.31 132.02 528.17 134.2 524.41C134.321 524.167 134.465 523.936 134.63 523.72C137.79 519.41 144.63 519.01 149.94 522.88C150.574 523.341 151.169 523.853 151.72 524.41C155.4 528.08 156.52 533.23 154.28 536.99Z" fill="white"/>
<path d="M169.74 564.501H142C139.98 564.499 138.003 563.912 136.31 562.809C134.617 561.707 133.28 560.138 132.46 558.291C132.185 557.733 132.028 557.123 132 556.501C132.003 555.293 132.484 554.135 133.339 553.28C134.193 552.425 135.351 551.944 136.56 551.941H167.13C165 555.721 166.09 560.861 169.74 564.501Z" fill="#CF264E"/>
<path d="M343.58 560.032C343.564 561.232 343.073 562.376 342.214 563.214C341.356 564.052 340.2 564.515 339 564.502H169.74C166.09 560.822 164.97 555.682 167.15 551.922H333.64C335.662 551.921 337.641 552.51 339.333 553.617C341.026 554.723 342.359 556.299 343.17 558.152C343.435 558.744 343.574 559.384 343.58 560.032Z" fill="#D7E8F0"/>
<path d="M187.26 564.501C187.139 564.744 186.995 564.975 186.83 565.191C183.7 569.531 176.83 569.901 171.55 566.051C170.91 565.58 170.305 565.062 169.74 564.501C166.09 560.821 164.97 555.681 167.15 551.921C167.275 551.681 167.419 551.45 167.58 551.231C170.74 546.921 177.58 546.541 182.89 550.391C183.526 550.85 184.121 551.362 184.67 551.921C188.35 555.631 189.47 560.801 187.26 564.501Z" fill="white"/>
<g opacity="0.21">
<path opacity="0.21" d="M192.1 486.618L178 420.748C177.708 419.355 176.945 418.105 175.839 417.209C174.734 416.313 173.353 415.825 171.93 415.828H102C101.053 415.828 100.119 416.045 99.2694 416.463C98.4198 416.88 97.6776 417.488 97.1 418.238C96.5272 418.973 96.1303 419.829 95.9396 420.74C95.7489 421.652 95.7696 422.596 96 423.498L112.35 490.148C112.55 491.076 112.979 491.94 113.6 492.658C114.162 493.369 114.878 493.944 115.693 494.339C116.509 494.734 117.404 494.938 118.31 494.938H118.47L186.13 494.128C187.042 494.117 187.94 493.904 188.759 493.505C189.579 493.106 190.3 492.529 190.87 491.818C191.445 491.095 191.853 490.254 192.066 489.355C192.278 488.457 192.29 487.522 192.1 486.618ZM100.64 422.348C100.589 422.15 100.585 421.943 100.629 421.743C100.672 421.544 100.762 421.357 100.89 421.198C101.015 421.03 101.178 420.893 101.366 420.8C101.553 420.706 101.76 420.657 101.97 420.658H171.89C172.205 420.656 172.511 420.762 172.757 420.958C173.003 421.155 173.173 421.43 173.24 421.738L184 471.908C148.06 437.208 144 477.018 144 477.018C123.73 466.458 117.86 478.018 116.17 485.628L100.64 422.348Z" fill="#D7E8F0"/>
<path opacity="0.21" d="M120.84 446.25C124.73 445.04 126.59 439.87 124.98 434.71C123.37 429.55 118.92 426.33 114.98 427.54C111.04 428.75 109.23 433.92 110.83 439.09C112.43 444.26 117 447.5 120.84 446.25Z" fill="#D7E8F0"/>
<path opacity="0.21" d="M138 445.077H160.93C163.79 445.077 166.64 445.077 169.5 445.077H169.9C170.703 445.1 171.5 444.95 172.24 444.637C172.754 444.386 173.191 444.002 173.506 443.526C173.822 443.049 174.005 442.496 174.035 441.926C174.066 441.355 173.943 440.786 173.68 440.278C173.418 439.77 173.024 439.342 172.54 439.037C172.006 438.784 171.517 438.446 171.09 438.037C170.82 437.591 170.631 437.1 170.53 436.587C170 435.145 168.981 433.935 167.65 433.167C166.677 432.511 165.58 432.058 164.427 431.836C163.274 431.614 162.088 431.628 160.94 431.877C159.828 432.165 158.813 432.745 158 433.557C157.28 434.257 157.15 435.187 156.6 435.977C156.24 436.487 156.01 436.327 155.52 436.037C155.03 435.747 154.76 435.557 154.36 435.347C153.571 434.928 152.752 434.568 151.91 434.267C150.195 433.63 148.366 433.357 146.54 433.467C143.33 433.717 140.13 435.637 139 438.647C137.991 438.664 137.021 439.039 136.264 439.706C135.507 440.373 135.013 441.289 134.87 442.287C134.805 442.672 134.831 443.066 134.943 443.439C135.056 443.811 135.253 444.153 135.52 444.437C136.242 444.943 137.123 445.171 138 445.077Z" fill="#D7E8F0"/>
<path opacity="0.21" d="M302.46 443.648L300.62 436.088C299.384 430.997 296.473 426.47 292.355 423.232C288.236 419.995 283.149 418.236 277.91 418.238H252.6C249.72 418.236 246.879 418.898 244.296 420.173C241.713 421.447 239.459 423.299 237.709 425.586C235.958 427.872 234.758 430.532 234.201 433.357C233.645 436.183 233.747 439.099 234.5 441.878L236.59 449.578C237.927 454.527 240.858 458.897 244.929 462.011C249 465.126 253.984 466.812 259.11 466.808H284.23C287.068 466.809 289.869 466.166 292.422 464.927C294.975 463.688 297.214 461.885 298.969 459.655C300.725 457.425 301.951 454.826 302.555 452.053C303.16 449.281 303.128 446.407 302.46 443.648ZM274.66 445.498L266 450.838C265.668 451.05 265.292 451.181 264.901 451.222C264.51 451.263 264.115 451.213 263.746 451.075C263.378 450.938 263.046 450.716 262.778 450.429C262.51 450.141 262.312 449.795 262.2 449.418L259 438.788C258.866 438.318 258.868 437.819 259.006 437.349C259.144 436.88 259.412 436.459 259.78 436.135C260.147 435.812 260.598 435.599 261.082 435.522C261.565 435.445 262.06 435.506 262.51 435.698L274.39 440.978C274.812 441.173 275.172 441.479 275.434 441.863C275.696 442.246 275.849 442.694 275.876 443.158C275.904 443.621 275.806 444.084 275.591 444.496C275.377 444.908 275.055 445.254 274.66 445.498Z" fill="#D7E8F0"/>
<path opacity="0.21" d="M296.78 511.647H252.57C250.548 511.643 248.57 511.052 246.876 509.946C245.183 508.841 243.847 507.267 243.03 505.417C242.718 504.726 242.586 503.968 242.646 503.213C242.705 502.458 242.955 501.73 243.371 501.096C243.786 500.463 244.355 499.945 245.025 499.59C245.694 499.235 246.442 499.055 247.2 499.067H294.2C292 502.797 293.1 507.977 296.78 511.647Z" fill="#D7E8F0"/>
<path opacity="0.21" d="M325.36 507.106C325.36 508.309 324.883 509.462 324.034 510.313C323.185 511.164 322.032 511.644 320.83 511.646H296.78C293.1 507.976 291.98 502.796 294.19 499.066H315.42C317.441 499.065 319.419 499.651 321.113 500.754C322.807 501.856 324.143 503.428 324.96 505.276C325.216 505.853 325.352 506.476 325.36 507.106Z" fill="#CF264E"/>
<path opacity="0.21" d="M314.3 511.648C314.182 511.893 314.038 512.124 313.87 512.338C310.71 516.648 303.87 517.048 298.56 513.178C297.928 512.714 297.333 512.203 296.78 511.648C293.1 507.978 291.98 502.798 294.19 499.068C294.315 498.825 294.462 498.594 294.63 498.378C297.76 494.038 304.63 493.668 309.91 497.518C310.551 497.989 311.156 498.507 311.72 499.068C315.37 502.748 316.49 507.888 314.3 511.648Z" fill="white"/>
<path opacity="0.21" d="M336.48 534.866C336.469 536.071 335.983 537.224 335.127 538.072C334.272 538.92 333.115 539.396 331.91 539.396H156.7C158.94 535.636 157.82 530.496 154.14 526.816H326.54C328.565 526.816 330.546 527.406 332.24 528.515C333.935 529.623 335.269 531.201 336.08 533.056C336.337 533.626 336.473 534.242 336.48 534.866Z" fill="#CF264E"/>
<path opacity="0.21" d="M156.7 539.396H134.86C132.841 539.395 130.865 538.809 129.172 537.709C127.479 536.608 126.141 535.041 125.32 533.196C125.069 532.615 124.933 531.99 124.92 531.356C124.92 530.152 125.398 528.998 126.25 528.146C127.101 527.295 128.256 526.816 129.46 526.816H154.14C157.82 530.496 158.94 535.636 156.7 539.396Z" fill="#D7E8F0"/>
<path opacity="0.21" d="M156.7 539.399C156.597 539.647 156.459 539.88 156.29 540.089C153.16 544.429 146.29 544.809 141.01 540.959C140.369 540.484 139.764 539.962 139.2 539.399C135.55 535.729 134.43 530.579 136.62 526.819C136.738 526.574 136.882 526.342 137.05 526.129C140.21 521.819 147.05 521.419 152.36 525.299C152.989 525.762 153.584 526.27 154.14 526.819C157.82 530.499 158.94 535.639 156.7 539.399Z" fill="white"/>
<path opacity="0.21" d="M172.15 566.947H144.37C142.351 566.943 140.377 566.356 138.684 565.256C136.992 564.156 135.653 562.59 134.83 560.747C134.579 560.176 134.443 559.561 134.43 558.937C134.435 557.727 134.918 556.567 135.774 555.712C136.63 554.856 137.79 554.372 139 554.367H169.57C167.38 558.127 168.5 563.277 172.15 566.947Z" fill="#CF264E"/>
<path opacity="0.21" d="M346 562.437C345.999 563.032 345.88 563.62 345.651 564.168C345.422 564.717 345.087 565.215 344.666 565.634C344.244 566.053 343.744 566.385 343.194 566.61C342.644 566.835 342.054 566.95 341.46 566.947H172.15C168.5 563.277 167.38 558.127 169.57 554.367H336.05C338.075 554.367 340.056 554.957 341.75 556.065C343.444 557.174 344.779 558.752 345.59 560.607C345.85 561.183 345.989 561.806 346 562.437Z" fill="#D7E8F0"/>
<path opacity="0.21" d="M189.68 566.949C189.555 567.192 189.408 567.423 189.24 567.639C186.11 571.979 179.24 572.359 173.96 568.509C173.319 568.034 172.714 567.513 172.15 566.949C168.5 563.279 167.38 558.129 169.57 554.369C169.688 554.124 169.832 553.893 170 553.679C173.16 549.369 180 548.999 185.31 552.849C185.939 553.312 186.534 553.82 187.09 554.369C190.77 558.049 191.89 563.219 189.68 566.949Z" fill="white"/>
</g>
</svg>
